# xmcd CD database file
#
# Track frame offsets:
#	150
#	9509
#	23276
#	38997
#	53401
#	74126
#	88043
#	105548
#	119715
#	133790
#	162955
#
# Disc length: 2383 seconds
#
# Revision: 8
# Processed by: cddbd v1.5.1PL0 Copyright (c) Steve Scherf et al.
# Submitted via: CDex 1.51
#
DISCID=8d094d0b
DTITLE=Queen - News of the world
DYEAR=1977
DGENRE=Rock
TTITLE0=We Will Rock You
TTITLE1=We Are The Champions
TTITLE2=Sheer Heart Attack
TTITLE3=All Dead, All Dead
TTITLE4=Spread Your Wings
TTITLE5=Fight From The Inside
TTITLE6=Get Down, Make Love
TTITLE7=Sleeping On The Sidewalk
TTITLE8=Who Needs You
TTITLE9=It's Late
TTITLE10=My Melancholy Blues
EXTD=YEAR: 1977
EXTT0=
EXTT1=
EXTT2=
EXTT3=
EXTT4=
EXTT5=
EXTT6=
EXTT7=
EXTT8=
EXTT9=
EXTT10=
PLAYORDER=
